<svg xmlns="http://www.w3.org/2000/svg" width="18" height="19" fill="none" viewBox="0 0 18 19">
    <g fill="#000" opacity=".8">
        <path d="M7.197 9.853c-.065-.13-.108-.282-.151-.412-.39.217-.843.434-1.318.607-.8.303-1.945.477-2.68.563-.345.044-.54.412-.389.715l.022.065c.022.043.043.108.086.152.778 1.3 2.593 1.473 3.695.455l1.491-1.387c-.302-.195-.583-.433-.756-.758zM10.112 9.77c-.151.325-.389.606-.735.78-.13.064-.28.108-.41.151.216.39.432.845.605 1.322.302.801.475 1.95.562 2.686.043.347.41.542.713.39l.065-.022c.043-.021.108-.043.15-.086 1.297-.78 1.47-2.6.455-3.705L10.112 9.77zM7.174 8.424c.151-.325.389-.606.735-.78.13-.065.28-.108.41-.151-.216-.39-.432-.845-.605-1.322-.302-.801-.475-1.95-.562-2.686-.043-.347-.41-.542-.713-.39l-.065.022c-.043.021-.108.043-.15.086-1.297.78-1.47 2.6-.455 3.705l1.405 1.516zM10.092 8.338c.065.13.108.281.151.411.39-.216.843-.433 1.319-.606.8-.304 1.944-.477 2.68-.564.345-.043.54-.411.388-.715l-.022-.064c-.021-.044-.043-.109-.086-.152-.778-1.3-2.593-1.473-3.695-.455L9.336 7.579c.302.174.583.434.756.759zM9.92 9.57c.064-.217.107-.434.064-.65-.022-.152-.065-.304-.13-.434-.173-.325-.432-.541-.756-.65-.216-.065-.432-.108-.648-.065-.151.022-.303.065-.432.13-.325.174-.54.434-.649.759-.064.216-.108.433-.064.65.021.151.064.303.13.433.172.325.431.541.755.65.217.065.433.108.649.065.151-.022.302-.065.432-.13.324-.174.54-.455.648-.759z"/>
        <path d="M16.466.43H.82C.367.43 0 .798 0 1.253v15.663c0 .455.367.823.821.823h.281V18c0 .26.216.477.475.477h2.918c.259 0 .475-.217.475-.477v-.26h7.347V18c0 .26.216.477.475.477h2.918c.259 0 .475-.217.475-.477v-.26h.28c.455 0 .822-.368.822-.823V1.253c0-.455-.367-.823-.821-.823zm-1.037.931c.345-.086.648.217.561.564-.043.151-.172.303-.324.324-.346.087-.648-.216-.562-.563.022-.151.152-.281.325-.325zm-1.297 0c.346-.086.648.217.562.564-.043.151-.173.303-.324.324-.346.087-.648-.216-.562-.563.043-.151.173-.281.324-.325zM1.858 9.53C1.6 5.412 4.97 2.033 9.076 2.293c3.392.216 6.136 2.968 6.353 6.37.259 4.115-3.112 7.495-7.218 7.235-3.392-.217-6.137-2.968-6.353-6.37z"/>
    </g>
</svg>
