<svg xmlns="http://www.w3.org/2000/svg" width="21" height="15" fill="none" viewBox="0 0 21 15">
    <g fill="#000" opacity=".7">
        <path d="M2.037 12.182h16.385c.192 0 .348-.156.348-.348V.994c0-.193-.156-.35-.348-.35H2.037c-.192 0-.348.157-.348.35v10.84c0 .192.156.348.348.348zm8.489-.57h-.592c-.115 0-.209-.095-.209-.21 0-.116.094-.21.21-.21h.59c.116 0 .21.094.21.21 0 .116-.094.21-.21.21zm-.341-10.396h.09c.116 0 .21.094.21.21 0 .115-.094.208-.21.208h-.09c-.116 0-.21-.093-.21-.209 0-.115.094-.21.21-.21zM2.83 2.415c0-.116.094-.21.209-.21H17.42c.115 0 .209.094.209.21v7.997c0 .116-.094.21-.209.21H3.039c-.115 0-.209-.094-.209-.21V2.415z"/>
        <path d="M5.61 5.648c.011.209.058.409.137.593.169.392.219.816.145 1.224l-.098.534c-.07.389.107.776.433.941.22.113.467.127.694.039.223-.086.4-.264.484-.488l.202-.53c.146-.385.398-.718.73-.963.428-.318.957-.492 1.49-.492h.884c.49 0 .958.154 1.353.446.374.277.653.645.815 1.07l.178.47c.085.223.261.4.484.487.227.088.473.074.694-.039.326-.165.503-.552.433-.94l-.098-.535c-.074-.41-.024-.832.144-1.223.055-.128.095-.267.119-.414.04-.25.027-.502-.042-.748l-.008-.032c-.014-.048-.025-.077-.036-.106l-.02-.053-.017-.046c-.006-.008-.013-.021-.02-.034-.027-.058-.057-.114-.09-.168l-.015-.025-.03-.048c-.04-.058-.083-.113-.13-.166l-.054-.06c-.054-.056-.11-.108-.169-.155l-.022-.018c-.085-.063-.151-.108-.22-.146-.083-.046-.156-.078-.23-.106l-.074-.027c-.063-.02-.128-.039-.196-.052-.043-.01-.085-.015-.128-.02l-.072-.008c-.165-.014-.297-.012-.419.008-.261.042-.502.138-.717.285-.466.321-1.007.491-1.565.491h-.656c-.557 0-1.099-.17-1.566-.491-.214-.147-.455-.243-.716-.285-.123-.02-.255-.022-.416-.008l-.068.007c-.053.007-.093.012-.133.02-.07.014-.137.033-.202.054l-.066.025c-.088.033-.16.065-.223.1-.07.039-.139.084-.214.14l-.167-.135.13.164c-.061.048-.119.101-.173.158l-.042.047c-.057.064-.104.123-.146.185l-.02.031-.014.026c-.038.06-.071.123-.101.187l-.019.035c-.023.057-.04.106-.057.157-.024.072-.039.131-.05.191-.013.07-.022.12-.027.173-.003.034-.004.067-.005.1l-.002.05c-.001.047 0 .067.002.087l.002.036zm8.058-.433c0-.115.094-.209.21-.209.114 0 .208.094.208.21v.075c0 .115-.094.21-.209.21-.115 0-.209-.095-.209-.21v-.076zm-.535-.562c0-.116.094-.21.209-.21.115 0 .209.094.209.21v.075c0 .116-.094.21-.209.21-.115 0-.209-.094-.209-.21v-.075zm0 1.125c0-.115.094-.209.209-.209.115 0 .209.094.209.21v.075c0 .115-.094.21-.209.21-.115 0-.209-.095-.209-.21v-.076zm-.535-.563c0-.115.093-.209.208-.209.116 0 .21.094.21.21v.075c0 .115-.094.21-.21.21-.115 0-.208-.095-.208-.21v-.076zm-1.873.169h.516c.116 0 .21.093.21.209 0 .116-.094.21-.21.21h-.516c-.115 0-.209-.094-.209-.21 0-.116.094-.21.209-.21zm-1.507 0h.517c.115 0 .209.093.209.209 0 .116-.094.21-.21.21h-.516c-.115 0-.208-.094-.208-.21 0-.116.093-.21.208-.21zm-2.574-.245h.437v-.438c0-.115.093-.21.209-.21.115 0 .208.095.208.21v.438h.437c.116 0 .21.094.21.21 0 .115-.094.209-.21.209h-.437v.438c0 .115-.093.21-.208.21-.116 0-.21-.095-.21-.21v-.438h-.436c-.115 0-.209-.094-.209-.21 0-.115.094-.209.209-.209zM20.112 12.602h-7.446l-.773.904c-.04.047-.097.073-.158.073h-3.01c-.06 0-.119-.026-.158-.073l-.773-.904H.348c-.192 0-.348.156-.348.348v1.119c0 .346.281.628.626.628h19.208c.345 0 .626-.282.626-.628V12.95c0-.192-.156-.348-.348-.348zm-18.39 1.256h-.591c-.115 0-.209-.093-.209-.209 0-.115.094-.21.209-.21h.591c.116 0 .21.095.21.21 0 .116-.094.21-.21.21zm1.81 0H2.94c-.115 0-.209-.093-.209-.209 0-.115.094-.21.21-.21h.59c.116 0 .21.095.21.21 0 .116-.094.21-.21.21z"/>
    </g>
</svg>
