<svg xmlns="http://www.w3.org/2000/svg" width="21" height="18" fill="none" viewBox="0 0 21 18">
    <g fill="#000" opacity=".7">
        <path d="M19.689 3.484H3.549V2.369c0-1.003-.813-1.818-1.813-1.818H.438C.196.55 0 .748 0 .99c0 .242.196.439.438.439h1.298c.516 0 .936.421.936.939v1.665h-.62c-.217 0-.392.176-.392.393v1.267c0 .217.175.393.391.393h.621v.847h-.62c-.217 0-.392.175-.392.392v2.208c0 .217.175.393.391.393h.621v.847h-.62c-.217 0-.392.176-.392.393v1.267c0 .217.175.393.391.393h.621v3.305c0 .243.196.44.439.44.242 0 .438-.197.438-.44v-.775h1.96v.747c0 .67.547 1.219 1.215 1.219h.877v-1.181h.996v1.18h.996v-1.18h.996v1.18h.997v-1.18h.996v1.18h.996v-1.18h.996v1.18h.996v-1.18h.996v1.18l.867.006c.675.005 1.225-.543 1.225-1.22v-.751h1.031c.724 0 1.311-.59 1.311-1.315V4.793c0-.725-.587-1.31-1.311-1.31zM8.609 8.25c0-.14.112-.253.249-.253h1.265c.137 0 .249.112.249.253v.64c0 .14-.112.25-.25.25H8.859c-.137 0-.25-.11-.25-.25v-.64zm0 2.321c0-.14.112-.253.249-.253h1.265c.137 0 .249.112.249.253v.64c0 .14-.112.25-.25.25H8.859c-.137 0-.25-.11-.25-.25v-.64zm0 2.321c0-.14.112-.253.249-.253h1.265c.137 0 .249.112.249.253v.64c0 .14-.112.25-.25.25H8.859c-.137 0-.25-.11-.25-.25v-.64zM4.399 9.95v-.47h.461v-.47H4.4v-.467h.46v-.47H4.4v-.466h.46v-.47H4.4V6.67h.46V6.2H4.4V5.73h.46v-.37c0-.167.136-.303.307-.303h1.14c.167 0 .303.136.303.304v.369h.46v.47h-.46v.47h.46v.466h-.46v.47h.46v.467h-.46v.47h.46v.466h-.46v.47h.46v.47h-.46v.366c0 .171-.136.307-.303.307h-1.14c-.17 0-.307-.136-.307-.307V9.95H4.4zm.496 3.6v-1.564c0-.17.139-.309.308-.309h1.56c.169 0 .307.14.307.309v1.564c0 .17-.138.308-.307.308h-1.56c-.17 0-.308-.139-.308-.308zm10.423.14c-2.355 0-4.258-1.916-4.258-4.276 0-2.361 1.903-4.269 4.258-4.269 2.354 0 4.27 1.908 4.27 4.269 0 2.36-1.916 4.277-4.27 4.277z"/>
        <path d="M18.675 8.893c.049-.044.07-.11.058-.176-.14-.703-.496-1.332-.992-1.811-.1-.097-.267-.053-.306.084-.136.523-.448 1.12-.904 1.59-.078-.109-.166-.21-.271-.294.315-.606.438-1.332.284-2.048-.013-.062-.056-.114-.114-.136-.359-.132-.68-.176-1.109-.176-.333 0-.657.048-.964.136-.132.04-.171.207-.075.303.47.493.767 1.029.925 1.587-.136.01-.272.035-.394.084-.4-.633-1.009-1.068-1.618-1.27-.062-.018-.132-.005-.18.039-.518.457-.899 1.073-1.074 1.767-.031.136.092.255.228.224.482-.136 1.188-.184 1.828-.013-.057.123-.096.25-.118.387-.68.022-1.364.281-1.912.77-.048.043-.07.11-.057.175.14.703.495 1.332.995 1.811.101.097.268.049.307-.088.145-.558.456-1.13.904-1.591.074.114.166.215.271.299-.32.598-.434 1.332-.29 2.048.014.062.058.115.12.137.359.132.675.175 1.104.175.338 0 .658-.048.965-.136.136-.04.175-.207.079-.303-.421-.44-.75-.958-.93-1.587.14-.005.272-.035.395-.084.408.629.964 1.047 1.618 1.27.066.018.131.005.18-.039.521-.457.903-1.072 1.074-1.767.035-.136-.092-.255-.224-.224-.487.136-1.193.18-1.833.013.062-.123.101-.25.123-.387.697-.03 1.355-.281 1.907-.769zm-3.354 1.297c-.425 0-.771-.347-.771-.774 0-.426.346-.774.771-.774.43 0 .776.348.776.774 0 .427-.346.774-.776.774z"/>
    </g>
</svg>
