<svg xmlns="http://www.w3.org/2000/svg" width="21" height="21" fill="none" viewBox="0 0 21 21">
    <path fill="#000" d="M16.625 8.75h-1.75V7h1.75v1.75zm0 2.625h-1.75v-1.75h1.75v1.75zM14 8.75h-1.75V7H14v1.75zm0 2.625h-1.75v-1.75H14v1.75zm0 3.5H7v-1.75h7v1.75zM6.125 8.75h-1.75V7h1.75v1.75zm0 2.625h-1.75v-1.75h1.75v1.75zM7 9.625h1.75v1.75H7v-1.75zM7 7h1.75v1.75H7V7zm2.625 2.625h1.75v1.75h-1.75v-1.75zm0-2.625h1.75v1.75h-1.75V7zM17.5 4.375h-14c-.971 0-1.75.779-1.75 1.75v8.75c0 .464.184.91.513 1.237.328.329.773.513 1.237.513h14c.464 0 .91-.184 1.237-.513.329-.328.513-.773.513-1.237v-8.75c0-.971-.788-1.75-1.75-1.75z"/>
</svg>
