<svg xmlns="http://www.w3.org/2000/svg" width="19" height="17" fill="none" viewBox="0 0 19 17">
    <path fill="#000" d="M18.32 1.204v10.88c0 .178-.07.348-.195.473-.125.126-.295.196-.472.196H.667c-.177 0-.347-.07-.472-.196C.07 12.432 0 12.262 0 12.085V1.204C0 1.026.07.856.195.73S.49.535.667.535h16.986c.177 0 .347.07.472.196.125.125.195.295.195.473zm-5.333 14.035h-1.334v-1.15h-5v1.15H5.32c-.177 0-.346.07-.471.196s-.196.296-.196.473.07.347.196.473c.125.125.294.195.471.195h7.693c.177 0 .347-.07.472-.195.125-.126.195-.296.195-.473s-.07-.347-.195-.473c-.125-.125-.295-.196-.472-.196h-.026z"/>
</svg>
