<svg xmlns="http://www.w3.org/2000/svg" width="19" height="17" fill="none" viewBox="0 0 19 17">
    <path fill="#000" d="M18.525 0H1.818c-.126 0-.247.05-.336.139-.09.089-.14.209-.14.335v.858H.476c-.126 0-.247.05-.336.14C.05 1.56 0 1.68 0 1.805v6.546c.002.124.054.242.142.328.09.087.209.136.333.136h.868v7.71c0 .126.05.247.139.335.089.09.21.139.336.139h16.707c.126 0 .247-.05.336-.139.089-.088.139-.209.139-.335V.474c0-.126-.05-.246-.14-.335-.088-.09-.209-.139-.335-.139zM1.789 7.869H.95V5.553h.84v2.314zm0-3.272H.95V2.28h.84v2.317zm11.337-1.61h.95v6.555h-.95V2.987zM4.047 6.539h1.042v-.837H4.047v-.947h1.042V3.89c0-.126.05-.246.139-.335.089-.089.21-.139.336-.139h.719v-.893h.95v.893h.842v-.893h.95v.893h.716c.126 0 .246.05.335.14.09.088.14.208.14.334v.865h1.045v.947h-1.045v.837h1.045v.947h-1.045v.569c0 .125-.05.246-.14.335-.089.089-.21.138-.335.138h-.716v1.19h-.95v-1.19h-.842v1.19h-.95v-1.19h-.72c-.125 0-.246-.05-.335-.138-.09-.09-.14-.21-.14-.335v-.569H4.048V6.54zM15.57 14.3c0 .126-.05.246-.139.335-.089.09-.21.139-.335.139H4.056c-.125 0-.246-.05-.335-.139-.09-.089-.14-.21-.14-.335v-1.222c0-.125.05-.246.14-.335.089-.088.21-.138.335-.138h11.04c.126 0 .246.05.335.138.09.09.14.21.14.335V14.3zm.897-4.758h-.95V2.996h.95v6.546zm-7.201-1.96H6.039V4.363h3.227V7.58z"/>
</svg>
