<svg xmlns="http://www.w3.org/2000/svg" width="24" height="16" fill="none" viewBox="0 0 24 16">
    <path fill="#000" d="M19.548 8.09c0 .777-.27 1.475-.696 2.058l.813.815c.658-.777 1.045-1.786 1.045-2.872 0-1.087-.387-2.096-1.046-2.872l-.812.815c.425.582.696 1.28.696 2.057zM16.26 10.612c.541 0 1.083-.194 1.47-.504l-.851-.854c-.194.116-.426.155-.658.155-.233 0-.426-.077-.659-.155l-.851.854c.464.31.968.504 1.548.504zM21.485 13.91c.32 0 .58-.26.58-.582 0-.321-.26-.582-.58-.582-.32 0-.58.26-.58.582 0 .322.26.582.58.582zM21.485 3.434c.32 0 .58-.26.58-.582 0-.322-.26-.582-.58-.582-.32 0-.58.26-.58.582 0 .321.26.582.58.582zM11.419 3.279s0-.04 0 0c.116-.117.154-.272.154-.427 0-.31-.27-.582-.58-.582-.31 0-.58.271-.58.582 0 .31.27.582.58.582.193 0 .348-.078.426-.155zM16.26 4.793c.773 0 1.47.272 2.05.699l.814-.815c-.775-.66-1.781-1.048-2.865-1.048-1.084 0-2.09.388-2.864 1.048l.812.815c.581-.427 1.278-.699 2.052-.699zM11.032 13.91c.32 0 .58-.26.58-.582 0-.321-.26-.582-.58-.582-.32 0-.58.26-.58.582 0 .322.26.582.58.582zM16.26 11.39c-.775 0-1.472-.272-2.053-.699l-.813.815c.775.66 1.781 1.048 2.865 1.048 1.084 0 2.09-.388 2.865-1.048l-.813-.815c-.581.427-1.278.699-2.052.699zM17.42 8.748l.851.854c.31-.427.504-.932.504-1.475s-.194-1.087-.503-1.475l-.852.777c.232.426.232.892 0 1.319zM15.058 7.432l-.852-.854c-.31.427-.503.932-.503 1.475s.194 1.087.503 1.475l.852-.854c-.194-.35-.194-.815 0-1.242zM15.832 7.663c-.232.233-.232.582 0 .815.233.233.581.233.813 0 .233-.233.233-.582 0-.815-.116-.116-.27-.155-.425-.155-.117 0-.271.039-.388.155zM14.787 6.075l.852.854c.387-.233.89-.233 1.277 0l.852-.854c-.426-.31-.93-.505-1.471-.505-.62 0-1.123.194-1.51.505z"/>
    <path fill="#000" d="M0 15.852h24V.328H0v15.524zM11.032 8.09c0-1.32.465-2.484 1.278-3.415l-.62-.621c-.193.116-.425.155-.658.155-.735 0-1.355-.62-1.355-1.358 0-.738.62-1.359 1.355-1.359.736 0 1.355.621 1.355 1.359 0 .233-.077.465-.155.66l.62.62c.929-.776 2.09-1.28 3.406-1.28 1.316 0 2.477.465 3.407 1.28l.619-.62c-.116-.195-.155-.427-.155-.66 0-.738.62-1.359 1.355-1.359s1.355.621 1.355 1.359c0 .737-.62 1.358-1.355 1.358-.232 0-.465-.078-.658-.155l-.62.62c.775.932 1.278 2.096 1.278 3.416 0 1.32-.465 2.484-1.278 3.415l.62.621c.193-.116.426-.155.658-.155.735 0 1.355.62 1.355 1.358 0 .738-.62 1.358-1.355 1.358-.736 0-1.355-.62-1.355-1.358 0-.233.077-.427.155-.62l-.658-.66c-.93.776-2.09 1.28-3.407 1.28-1.316 0-2.477-.466-3.406-1.28l-.62.62c.117.194.155.427.155.66 0 .738-.619 1.358-1.355 1.358-.735 0-1.316-.62-1.316-1.358 0-.737.62-1.358 1.355-1.358.232 0 .465.078.658.155l.62-.62c-.813-.932-1.278-2.097-1.278-3.416zM1.548 2.58c.078-.622.581-1.088 1.2-1.088h.968c.62 0 1.123.466 1.2 1.087l.349 3.61c.038.349-.078.66-.31.93-.232.234-.542.389-.89.389H2.439c-.349 0-.658-.155-.89-.388-.233-.233-.349-.582-.31-.932l.31-3.609zm-.387 7.76c0-.62.504-1.125 1.123-1.125h5.148c.62 0 1.123.505 1.123 1.126v2.29c0 .116-.039.232-.155.31L6.194 14.61c-.078.039-.155.078-.233.078H3.755c-.078 0-.155-.04-.232-.078L1.316 12.94c-.116-.078-.155-.155-.155-.31v-2.29z"/>
    <path fill="#000" d="M5.807 13.912l1.935-1.475v-2.095c0-.195-.155-.35-.348-.35h-5.11c-.194 0-.348.155-.348.35v2.095l1.935 1.475h1.936zm-.117-2.95c0-.232.155-.388.387-.388.233 0 .388.156.388.388v.66c0 .233-.155.388-.388.388-.232 0-.387-.155-.387-.388v-.66zm-1.238 1.359c0-.233.155-.388.387-.388s.387.155.387.388v.66c0 .232-.155.388-.387.388s-.387-.156-.387-.389v-.66zm-.852-.31c-.232 0-.387-.156-.387-.389v-.66c0-.232.155-.388.387-.388s.387.156.387.388v.66c0 .233-.193.388-.387.388zM12.968 8.09c0-.776.27-1.474.697-2.056l-.813-.815c-.658.776-1.045 1.785-1.045 2.872 0 1.086.387 2.095 1.045 2.872l.813-.815c-.426-.583-.697-1.281-.697-2.057zM2.44 6.733h1.625c.116 0 .232-.04.31-.156.077-.077.116-.194.116-.31l-.349-3.61c-.038-.232-.193-.387-.425-.387h-.968c-.232 0-.387.155-.426.388l-.348 3.609c0 .116.038.233.116.31.077.117.193.156.348.156z"/>
</svg>
